<svg width="50" height="50" viewBox="0 0 50 50" fill="none" xmlns="http://www.w3.org/2000/svg">
<path d="M25 0C11.2149 0 0 11.2149 0 24.9999C0 38.785 11.2149 50 25 50C38.7851 50 50 38.785 50 24.9999C50 11.2149 38.7851 0 25 0ZM25 48.0469C12.292 48.0469 1.95312 37.7081 1.95312 24.9999C1.95312 12.2919 12.292 1.95312 25 1.95312C37.708 1.95312 48.0469 12.2919 48.0469 24.9999C48.0469 37.7081 37.7081 48.0469 25 48.0469Z" fill="white"/>
<path d="M38.4861 16.0044C38.1869 15.5556 37.5806 15.4344 37.1317 15.7338C36.683 16.033 36.5619 16.6393 36.8612 17.088C38.4291 19.4387 39.2578 22.1745 39.2578 25C39.2578 29.0787 37.5067 32.969 34.4534 35.6733C34.0496 36.0309 34.0121 36.6481 34.3699 37.0519C34.5628 37.2697 34.8314 37.3809 35.1013 37.3809C35.3315 37.3809 35.5625 37.3 35.7484 37.1354C39.22 34.0605 41.211 29.6374 41.211 25C41.211 21.7876 40.2688 18.6768 38.4861 16.0044Z" fill="white"/>
<path d="M36.8093 24.6165C36.8077 24.5648 36.8051 24.5133 36.8028 24.4617C36.7996 24.3917 36.7958 24.3217 36.7913 24.2518C36.7869 24.1813 36.7822 24.1107 36.7765 24.0403C36.7745 24.0149 36.7717 23.9895 36.7695 23.9641C36.6672 22.7928 36.3918 21.6501 35.9529 20.5673C35.9473 20.5534 35.9417 20.5396 35.936 20.5258C35.8998 20.4374 35.8629 20.3492 35.8245 20.2616C35.8116 20.232 35.7979 20.2028 35.7847 20.1734C35.5164 19.5749 35.1988 18.9957 34.8301 18.4431C34.5309 17.9943 33.9246 17.8732 33.4758 18.1726C33.0272 18.472 32.906 19.0783 33.2053 19.5269C33.4732 19.9284 33.7095 20.3464 33.9141 20.7773C33.9155 20.7801 33.9164 20.783 33.9177 20.7859C33.9485 20.851 33.9779 20.9166 34.0072 20.9823C34.0162 21.0024 34.0255 21.0225 34.0343 21.0427C34.067 21.1176 34.0988 21.193 34.1297 21.2687C34.1336 21.2781 34.1375 21.2875 34.1413 21.297C34.5065 22.2011 34.7375 23.1631 34.8241 24.1352C34.8259 24.1565 34.8283 24.1777 34.8299 24.1991C34.8348 24.2579 34.8385 24.3168 34.8423 24.3756C34.8461 24.4339 34.8494 24.4923 34.852 24.5508C34.854 24.5938 34.856 24.6368 34.8575 24.6798C34.8609 24.7863 34.8633 24.8931 34.8633 25C34.8633 26.6076 34.4646 28.2079 33.7104 29.6276C33.4574 30.1039 33.6383 30.6952 34.1146 30.9482C34.2607 31.0259 34.4174 31.0626 34.5719 31.0626C34.9215 31.0626 35.2597 30.8742 35.4352 30.544C36.3387 28.8431 36.8164 26.9261 36.8164 25C36.8164 24.8722 36.8135 24.7443 36.8093 24.6165Z" fill="white"/>
<path d="M24.9999 18.2154C21.2589 18.2154 18.2155 21.2589 18.2155 24.9999C18.2155 28.7409 21.259 31.7845 24.9999 31.7845C28.7409 31.7845 31.7844 28.7409 31.7844 24.9999C31.7844 21.2589 28.741 18.2154 24.9999 18.2154ZM24.9999 29.8313C22.3359 29.8313 20.1686 27.6641 20.1686 24.9999C20.1686 22.3359 22.3359 20.1685 24.9999 20.1685C27.664 20.1685 29.8313 22.3358 29.8313 24.9999C29.8314 27.664 27.664 29.8313 24.9999 29.8313Z" fill="white"/>
<path d="M25 24.0233C24.4621 24.0233 24.0234 24.462 24.0234 24.9999C24.0234 25.5378 24.4621 25.9764 25 25.9764C25.5379 25.9764 25.9766 25.5378 25.9766 24.9999C25.9766 24.4621 25.5379 24.0233 25 24.0233Z" fill="white"/>
<path d="M16.4841 7.28752C16.2265 6.8135 15.6334 6.6383 15.1597 6.89582C8.51953 10.5052 4.39453 17.4423 4.39453 25C4.39453 28.683 5.38437 32.306 7.25703 35.4772C7.43926 35.7857 7.76465 35.9573 8.09883 35.9573C8.26768 35.9573 8.43857 35.9135 8.59453 35.8214C9.05889 35.5472 9.21309 34.9485 8.93887 34.484C7.24365 31.6134 6.34766 28.3339 6.34766 25C6.34766 18.1586 10.0816 11.8792 16.0925 8.61194C16.5663 8.35432 16.7416 7.76145 16.4841 7.28752Z" fill="white"/>
<path d="M15.1332 13.3515C14.759 12.9629 14.1406 12.9516 13.7523 13.3258C10.598 16.365 8.78894 20.6199 8.78894 25C8.78894 27.8975 9.56765 30.7477 11.041 33.2427C11.2232 33.5512 11.5486 33.7229 11.8828 33.7229C12.0516 33.7229 12.2225 33.679 12.3784 33.587C12.8429 33.3128 12.9971 32.714 12.7228 32.2495C11.4271 30.0552 10.7422 27.5483 10.7422 25C10.7422 21.1478 12.3333 17.4053 15.1075 14.7323C15.4959 14.3581 15.5074 13.74 15.1332 13.3515Z" fill="white"/>
<path d="M17.6785 16.9467C17.2814 16.5817 16.6636 16.6078 16.2987 17.0051C14.2898 19.1915 13.1835 22.0307 13.1835 24.9999C13.1835 27.1119 13.7511 29.1895 14.825 31.0082C15.0072 31.3166 15.3327 31.4883 15.6668 31.4883C15.8355 31.4883 16.0065 31.4446 16.1624 31.3525C16.6268 31.0782 16.781 30.4793 16.5067 30.015C15.6103 28.4969 15.1365 26.7627 15.1365 24.9999C15.1365 22.5215 16.06 20.1515 17.7369 18.3265C18.1017 17.9294 18.0757 17.3116 17.6785 16.9467Z" fill="white"/>
<path d="M42.0921 13.4912C41.7908 13.0438 41.1841 12.9254 40.7366 13.2266C40.2892 13.5279 40.1708 14.1347 40.4719 14.5821C42.5526 17.6722 43.6524 21.2746 43.6524 25C43.6524 31.7824 39.966 38.0359 34.0317 41.3198C33.5598 41.5811 33.3889 42.1753 33.6502 42.6472C33.8284 42.9693 34.1617 43.1511 34.5055 43.1511C34.6654 43.1511 34.8276 43.1117 34.9775 43.0288C41.5331 39.4009 45.6055 32.4927 45.6055 25C45.6055 20.8845 44.3906 16.9048 42.0921 13.4912Z" fill="white"/>
<path d="M14.4273 34.5658L14.4152 34.5523C14.0571 34.149 13.4398 34.1123 13.0366 34.4705C12.6334 34.8287 12.5967 35.4459 12.9548 35.8492L12.9767 35.8736C13.1696 36.0874 13.4354 36.1963 13.7024 36.1963C13.9354 36.1963 14.1693 36.1134 14.3559 35.9451C14.7565 35.584 14.7885 34.9665 14.4273 34.5658Z" fill="white"/>
</svg>
