<svg width="255" height="92" viewBox="0 0 255 92" fill="none" xmlns="http://www.w3.org/2000/svg">
<circle cx="46" cy="46" r="46" fill="#27304F"/>
<g clip-path="url(#clip0)">
<path d="M28.5795 69.6531C27.0075 69.8266 24.6531 69.8143 22.2423 68.679C17.1656 66.2896 14.5291 60.1947 15.1496 54.94C15.4831 52.0995 16.7118 49.9976 17.4966 48.8649C16.5598 46.1037 15.6597 42.6113 15.2428 38.5191C14.5463 31.693 15.4733 25.9847 16.4372 22.1329C17.7615 22.4824 19.0859 22.8344 20.4127 23.1839C21.3348 21.3522 24.8542 14.9102 32.3515 12.2655C35.3632 11.2022 38.0953 11.0783 40.0401 11.1799C41.2271 10.6742 45.2026 9.16228 49.9016 10.6098C53.0212 11.5715 55.0421 13.3982 56.0059 14.407C56.467 14.8606 57.3744 15.6117 58.7037 15.9066C61.7399 16.5783 64.1237 14.2435 64.3322 14.0328C65.5633 15.0614 66.8828 16.4023 68.0649 18.1399C72.4892 24.6463 71.7486 31.9607 71.3684 34.5037C71.9448 35.2126 72.6609 36.2487 73.2421 37.6219C73.7473 38.8166 73.9951 39.9022 74.1226 40.74C74.8436 41.4538 77.6959 44.4381 77.9779 49.1995C78.3164 54.9128 74.6916 58.653 74.1226 59.2181C73.816 61.5133 73.0239 65.0528 70.7087 68.57C65.2273 76.8932 54.8483 79.5602 47.0052 78.9083C36.8641 78.0606 30.4042 71.6137 28.5795 69.6531Z" fill="#14192A"/>
<path d="M32.067 55.3812C31.9076 54.8383 31.6746 54.1865 31.3166 53.4875C30.9732 52.8133 30.6004 52.2581 30.2669 51.8194C30.7623 51.7871 31.6526 51.6583 32.5772 51.0907C34.0732 50.1736 34.625 48.7434 34.7771 48.2923C35.2161 47.1224 36.018 45.3625 37.4626 43.5581C38.3381 42.4675 41.7324 38.2291 47.5841 37.4954C51.3683 37.022 54.4045 38.2365 55.8882 38.9702C56.9428 38.6058 57.9999 38.239 59.0544 37.8746C60.5652 38.6926 62.0784 39.5105 63.5891 40.3285C63.7951 39.7311 64.4647 38.0531 66.2158 36.8856C67.3562 36.1247 68.4721 35.9016 69.0999 35.8273C69.404 36.3056 69.7081 36.8361 70 37.4186C70.7308 38.8834 71.1625 40.2665 71.4249 41.4339C70.7995 41.6669 69.7523 42.1602 68.8007 43.1764C67.2017 44.8891 66.9736 46.9142 66.927 47.571C66.6155 48.0568 65.919 48.9913 64.678 49.6159C62.6645 50.6296 60.727 50.0645 60.2782 49.9207C59.4542 49.2565 56.1335 46.7382 51.4934 47.11C48.543 47.3454 46.4485 48.6418 45.5779 49.2515C42.3308 51.5269 41.1855 54.7094 40.8544 55.7653C39.5693 55.287 37.5484 54.7342 35.0714 54.873C33.9138 54.9449 32.9009 55.1482 32.067 55.3812Z" fill="white"/>
<path d="M32.8911 58.5637C33.0383 59.513 33.129 60.6681 33.0407 61.9743C32.8543 64.7652 31.942 66.934 31.2406 68.2626C31.7654 69.0904 32.484 70.0571 33.4626 71.0238C35.1278 72.6696 36.8495 73.6214 38.0733 74.1667C42.3995 76.3603 46.2205 76.965 48.5185 77.1534C51.1623 77.3691 57.2887 77.7855 63.29 74.1121C64.7835 73.1975 67.6039 71.4253 69.7499 67.8487C71.8173 64.4034 72.1828 61.0746 72.2514 59.3965C71.1944 59.0743 70.1374 58.7546 69.0803 58.4324C68.9945 57.9961 68.786 57.2377 68.2146 56.504C67.9399 56.1495 67.0031 54.9449 65.8013 55.0317C64.9356 55.0936 64.3568 55.7976 63.9276 56.3354C62.5174 58.1052 62.4316 60.2789 62.4757 61.377C61.9067 62.3337 60.8816 63.7837 59.182 65.0082C55.7436 67.4868 51.0299 67.7941 47.2775 66.5176C43.8097 65.3353 43.3069 63.4541 37.4626 60.5367C35.5693 59.5874 33.9506 58.9504 32.8911 58.5637Z" fill="white"/>
<path d="M22.8947 62.2841C22.5415 62.0388 21.46 61.2233 20.9523 59.6766C20.4324 58.0977 20.8444 56.7642 20.9842 56.3602C20.8689 56.4916 19.7506 57.8251 20.1552 59.58C20.4618 60.9135 21.5286 61.9644 22.8947 62.2841Z" fill="#6C88EA"/>
<path d="M21.7173 45.1048C21.553 42.7229 21.4819 39.3742 21.9282 35.4184C22.485 30.4735 22.8847 26.9365 24.8173 23.3797C29.8719 14.0823 41.2123 12.3646 41.9235 12.268C47.6869 11.4847 52.3148 13.0686 54.5515 14.0105C52.435 13.3115 47.9641 12.1564 42.5465 13.314C41.3325 13.5717 32.7389 15.5472 28.0595 23.3797C25.5114 27.6479 25.1165 31.9904 24.7462 36.0578C24.4617 39.1958 24.5843 41.8504 24.7682 43.7614C23.7505 44.2101 22.7351 44.6587 21.7173 45.1048Z" fill="#6C88EA"/>
<path d="M49.0825 64.7008C46.7747 63.7961 46.2842 59.3519 47.4246 56.3181C48.278 54.0427 50.5466 51.2369 52.7269 51.6161C55.1524 52.04 56.7711 56.2859 55.8489 59.5725C54.9292 62.8518 51.3608 65.5956 49.0825 64.7008Z" fill="#6C88EA"/>
<path d="M57.0508 51.455C57.5143 52.3126 58.586 54.583 58.1568 57.4706C58.0342 58.3035 57.3353 62.2172 53.8306 64.0117C51.8049 65.0478 49.8453 64.8644 49.0164 64.7355C49.757 65.0726 51.7239 65.8459 54.0244 65.261C57.2813 64.4331 59.724 61.2654 59.8466 57.8325C59.9766 54.2013 57.4554 51.8219 57.0508 51.455Z" fill="white"/>
<path d="M63.8687 52.2729C64.0551 52.724 64.9135 52.9025 65.3795 52.491C65.7571 52.1564 65.843 51.4599 65.4972 51.1427C65.198 50.8675 64.6977 50.9964 64.4181 51.1625C64.0355 51.3905 63.7142 51.9036 63.8687 52.2729Z" fill="#6C88EA"/>
<path d="M63.8883 52.3325C63.6406 52.0772 63.8074 51.4674 64.163 51.1626C64.4573 50.9097 64.9748 50.7908 65.2028 51.0238C65.4505 51.2766 65.2838 51.8714 64.9478 52.1738C64.6461 52.444 64.1164 52.5679 63.8883 52.3325Z" fill="white"/>
<path d="M71.025 54.4541C70.613 54.4541 70.2084 52.3671 70.1593 50.6246C70.0882 48.0593 70.7626 45.3476 71.2409 45.3724C71.7215 45.3947 72.0355 48.1757 71.9276 50.4065C71.8442 52.1341 71.4591 54.4541 71.025 54.4541Z" fill="#6C88EA"/>
<path d="M72.325 55.9513C72.8891 54.997 73.9535 52.91 74.0565 50.0422C74.157 47.2686 73.3085 45.1668 72.8302 44.1703C73.2398 44.5917 75.1135 46.6068 75.1405 49.7522C75.1724 53.4008 72.688 55.634 72.325 55.9513Z" fill="white"/>
<path d="M44.597 16.9476C45.9655 17.1954 48.3297 17.8176 50.7454 19.5452C53.8969 21.8007 55.3561 24.6735 55.9374 26.0119C56.2121 25.7888 56.9895 25.0998 57.2617 23.915C57.431 23.1888 57.3402 22.5765 57.2617 22.227C58.1839 22.8393 59.6382 23.9894 60.7762 25.8954C62.7872 29.2614 62.4341 32.6645 62.2747 33.7576C62.8069 33.0586 63.4862 32.0077 64.0037 30.6122C64.5383 29.1746 64.7051 27.8957 64.7517 27.0009C65.3231 27.4892 65.9755 28.1386 66.596 28.9813C67.8222 30.6494 68.3593 32.3126 68.6119 33.4081C68.8204 31.8887 69.0142 28.9813 67.8909 25.6129C66.9025 22.6558 65.328 20.6358 64.3348 19.5427C64.4893 19.9021 64.8007 20.7547 64.6462 21.8453C64.5163 22.7723 64.1116 23.4242 63.886 23.739C62.7455 22.5741 61.3746 21.3273 59.751 20.1004C57.0508 18.0605 54.4438 16.6749 52.2758 15.7281C52.4965 16.1866 52.7197 16.6427 52.9404 17.1012C53.2887 17.82 53.632 18.5389 53.9778 19.2552C53.2249 18.576 51.361 17.0839 48.5602 16.6923C46.8778 16.4618 45.4799 16.7121 44.597 16.9476Z" fill="#6C88EA"/>
<path d="M57.3378 69.7472C57.9509 69.9108 61.9951 70.9221 65.7204 68.3419C68.6389 66.3218 69.5292 63.3673 69.7499 62.5369C68.9553 63.7465 67.2238 66.0268 64.1925 67.7321C61.377 69.3184 58.7553 69.6654 57.3378 69.7472Z" fill="#6C88EA"/>
<path d="M33.1437 57.0319C34.1271 56.7518 35.6673 56.4445 37.5435 56.6031C39.0174 56.7295 40.2167 57.1013 41.0579 57.4384C40.9868 57.8399 40.9279 58.4075 40.9991 59.0792C41.0677 59.7311 41.2345 60.2591 41.3841 60.6309C40.3001 59.8997 38.9291 59.1015 37.2786 58.3927C35.7531 57.7383 34.343 57.3145 33.1437 57.0319Z" fill="white"/>
<path d="M33.0677 57.0592C34.3332 57.084 35.8881 57.2253 37.6245 57.6367C38.9121 57.9416 40.0329 58.3357 40.9722 58.7298C40.9771 58.9925 41.009 59.3222 41.0948 59.689C41.1954 60.1079 41.3376 60.4475 41.4676 60.7028C40.386 59.9542 38.9881 59.1189 37.2763 58.3927C35.7116 57.7309 34.2719 57.3195 33.0677 57.0592Z" fill="#6C88EA"/>
<path d="M23.5741 50.5924C24.4717 50.3991 25.3693 50.2058 26.2694 50.0149C27.3117 51.0089 29.2051 53.1008 30.1346 56.3404C31.79 62.1131 29.0677 66.9489 28.5233 67.8759C28.9549 66.416 30.1149 61.7958 28.018 56.7146C26.7329 53.599 24.7636 51.6161 23.5741 50.5924Z" fill="#6C88EA"/>
</g>
<path d="M111.028 51L108.598 47.49H108.454H105.916V51H103V38.4H108.454C109.57 38.4 110.536 38.586 111.352 38.958C112.18 39.33 112.816 39.858 113.26 40.542C113.704 41.226 113.926 42.036 113.926 42.972C113.926 43.908 113.698 44.718 113.242 45.402C112.798 46.074 112.162 46.59 111.334 46.95L114.16 51H111.028ZM110.974 42.972C110.974 42.264 110.746 41.724 110.29 41.352C109.834 40.968 109.168 40.776 108.292 40.776H105.916V45.168H108.292C109.168 45.168 109.834 44.976 110.29 44.592C110.746 44.208 110.974 43.668 110.974 42.972Z" fill="white"/>
<path d="M126.334 48.3H120.484L119.368 51H116.38L121.996 38.4H124.876L130.51 51H127.45L126.334 48.3ZM125.416 46.086L123.418 41.262L121.42 46.086H125.416Z" fill="white"/>
<path d="M133.618 38.4H139.342C140.71 38.4 141.916 38.664 142.96 39.192C144.016 39.708 144.832 40.44 145.408 41.388C145.996 42.336 146.29 43.44 146.29 44.7C146.29 45.96 145.996 47.064 145.408 48.012C144.832 48.96 144.016 49.698 142.96 50.226C141.916 50.742 140.71 51 139.342 51H133.618V38.4ZM139.198 48.606C140.458 48.606 141.46 48.258 142.204 47.562C142.96 46.854 143.338 45.9 143.338 44.7C143.338 43.5 142.96 42.552 142.204 41.856C141.46 41.148 140.458 40.794 139.198 40.794H136.534V48.606H139.198Z" fill="white"/>
<path d="M150.289 38.4H153.205V51H150.289V38.4Z" fill="white"/>
<path d="M164.097 51.216C162.789 51.216 161.607 50.934 160.551 50.37C159.507 49.806 158.685 49.032 158.085 48.048C157.497 47.052 157.203 45.936 157.203 44.7C157.203 43.464 157.497 42.354 158.085 41.37C158.685 40.374 159.507 39.594 160.551 39.03C161.607 38.466 162.789 38.184 164.097 38.184C165.405 38.184 166.581 38.466 167.625 39.03C168.669 39.594 169.491 40.374 170.091 41.37C170.691 42.354 170.991 43.464 170.991 44.7C170.991 45.936 170.691 47.052 170.091 48.048C169.491 49.032 168.669 49.806 167.625 50.37C166.581 50.934 165.405 51.216 164.097 51.216ZM164.097 48.732C164.841 48.732 165.513 48.564 166.113 48.228C166.713 47.88 167.181 47.4 167.517 46.788C167.865 46.176 168.039 45.48 168.039 44.7C168.039 43.92 167.865 43.224 167.517 42.612C167.181 42 166.713 41.526 166.113 41.19C165.513 40.842 164.841 40.668 164.097 40.668C163.353 40.668 162.681 40.842 162.081 41.19C161.481 41.526 161.007 42 160.659 42.612C160.323 43.224 160.155 43.92 160.155 44.7C160.155 45.48 160.323 46.176 160.659 46.788C161.007 47.4 161.481 47.88 162.081 48.228C162.681 48.564 163.353 48.732 164.097 48.732Z" fill="white"/>
<rect x="182.506" y="28" width="72" height="33" rx="10" fill="url(#paint0_linear)"/>
<path d="M205.556 38.4V51H203.162L196.88 43.35V51H194V38.4H196.412L202.676 46.05V38.4H205.556Z" fill="white"/>
<path d="M210.337 38.4H213.253V51H210.337V38.4Z" fill="white"/>
<path d="M224.073 51.216C222.789 51.216 221.625 50.94 220.581 50.388C219.549 49.824 218.733 49.05 218.133 48.066C217.545 47.07 217.251 45.948 217.251 44.7C217.251 43.452 217.545 42.336 218.133 41.352C218.733 40.356 219.549 39.582 220.581 39.03C221.625 38.466 222.795 38.184 224.091 38.184C225.183 38.184 226.167 38.376 227.043 38.76C227.931 39.144 228.675 39.696 229.275 40.416L227.403 42.144C226.551 41.16 225.495 40.668 224.235 40.668C223.455 40.668 222.759 40.842 222.147 41.19C221.535 41.526 221.055 42 220.707 42.612C220.371 43.224 220.203 43.92 220.203 44.7C220.203 45.48 220.371 46.176 220.707 46.788C221.055 47.4 221.535 47.88 222.147 48.228C222.759 48.564 223.455 48.732 224.235 48.732C225.495 48.732 226.551 48.234 227.403 47.238L229.275 48.966C228.675 49.698 227.931 50.256 227.043 50.64C226.155 51.024 225.165 51.216 224.073 51.216Z" fill="white"/>
<path d="M242.801 48.66V51H233.045V38.4H242.567V40.74H235.943V43.476H241.793V45.744H235.943V48.66H242.801Z" fill="white"/>
<defs>
<linearGradient id="paint0_linear" x1="255" y1="44" x2="183" y2="44" gradientUnits="userSpaceOnUse">
<stop stop-color="#6C88EA"/>
<stop offset="1" stop-color="#3C529F"/>
</linearGradient>
<clipPath id="clip0">
<rect width="63" height="69" fill="white" transform="translate(15 10)"/>
</clipPath>
</defs>
</svg>
