<svg width="20" height="20" viewBox="0 0 20 20" fill="none" xmlns="http://www.w3.org/2000/svg">
<g clip-path="url(#clip0)">
<path d="M19.6641 8.94079L17.9745 7.4013V2.2965C17.9745 1.97169 17.7112 1.70833 17.3864 1.70833H13.3194C12.9946 1.70833 12.7312 1.97165 12.7312 2.2965V2.6236L10.6907 0.764347C10.2969 0.405402 9.70292 0.405441 9.30921 0.764308L0.335853 8.94083C0.0203847 9.22833 -0.0838731 9.6713 0.0702675 10.0693C0.224447 10.4673 0.599838 10.7245 1.02667 10.7245H2.45984V18.9167C2.45984 19.2415 2.72316 19.5049 3.048 19.5049H7.96648C8.29128 19.5049 8.55464 19.2415 8.55464 18.9167V13.9426H11.4453V18.9167C11.4453 19.2415 11.7086 19.5049 12.0335 19.5049H16.9518C17.2766 19.5049 17.5399 19.2416 17.5399 18.9167V10.7245H18.9734C19.4002 10.7245 19.7756 10.4673 19.9298 10.0693C20.0839 9.6713 19.9796 9.22833 19.6641 8.94079ZM16.9518 9.54817C16.6269 9.54817 16.3636 9.81149 16.3636 10.1363V18.3286H12.6217V13.3545C12.6217 13.0297 12.3583 12.7663 12.0335 12.7663H7.96648C7.64167 12.7663 7.37831 13.0296 7.37831 13.3545V18.3286H3.63613V10.1363C3.63613 9.81153 3.37281 9.54817 3.04796 9.54817H1.41581L10 1.7263L12.9233 4.39001C13.0955 4.54689 13.3441 4.58732 13.5571 4.49329C13.7701 4.39915 13.9076 4.18814 13.9076 3.95525V2.88466H16.7983V7.66107C16.7983 7.82657 16.868 7.98435 16.9903 8.09583L18.5842 9.54817H16.9518Z" fill="white"/>
</g>
<defs>
<clipPath id="clip0">
<rect width="20" height="20" fill="white"/>
</clipPath>
</defs>
</svg>
