<svg width="20" height="20" viewBox="0 0 20 20" fill="none" xmlns="http://www.w3.org/2000/svg">
<g clip-path="url(#clip0)">
<path d="M9.99938 8.20312C9.00861 8.20312 8.20251 9.00922 8.20251 10C8.20251 10.9908 9.00861 11.7969 9.99938 11.7969C10.9902 11.7969 11.7962 10.9908 11.7962 10C11.7962 9.00922 10.9902 8.20312 9.99938 8.20312ZM9.99938 11.0156C9.43938 11.0156 8.98376 10.56 8.98376 10C8.98376 9.43996 9.43938 8.98438 9.99938 8.98438C10.5594 8.98438 11.015 9.43996 11.015 10C11.015 10.56 10.5594 11.0156 9.99938 11.0156Z" fill="#737FA8"/>
<path d="M9.99938 6.32812C7.9747 6.32812 6.32751 7.97531 6.32751 10C6.32751 12.0247 7.9747 13.6719 9.99938 13.6719C12.0241 13.6719 13.6712 12.0247 13.6712 10C13.6712 7.97531 12.0241 6.32812 9.99938 6.32812ZM9.99938 12.8906C8.40548 12.8906 7.10876 11.5939 7.10876 10C7.10876 8.40609 8.40548 7.10938 9.99938 7.10938C11.5933 7.10938 12.89 8.40609 12.89 10C12.89 11.5939 11.5933 12.8906 9.99938 12.8906Z" fill="#737FA8"/>
<path d="M19.9841 0.282458C19.9244 0.0751539 19.7079 -0.0442599 19.5006 0.0152712L17.5105 0.588786C17.3228 0.617262 17.1789 0.779332 17.1789 0.974996V3.75358C16.9946 3.6398 16.7863 3.56136 16.5634 3.528C15.734 2.68624 14.7669 2.02019 13.6862 1.54816C12.5212 1.03929 11.2808 0.781246 9.99943 0.781246C7.53702 0.781246 5.22198 1.74015 3.48082 3.48136C1.73965 5.22253 0.780704 7.53756 0.780704 9.99998C0.780704 11.1862 1.00164 12.335 1.43707 13.4216C1.1591 13.5338 0.898672 13.7022 0.673673 13.9272C-0.223825 14.8247 -0.223825 16.285 0.673673 17.1826L3.37664 19.8855C3.45292 19.9618 3.55289 20 3.65285 20C3.75281 20 3.85281 19.9618 3.92906 19.8855L5.67253 18.1421C6.99819 18.8473 8.48764 19.2187 9.99943 19.2187C11.8229 19.2187 13.586 18.6871 15.0983 17.6814C15.2779 17.562 15.3267 17.3195 15.2072 17.1398C15.0878 16.9602 14.8453 16.9114 14.6657 17.0309C13.282 17.9511 11.6685 18.4375 9.99943 18.4375C8.69612 18.4375 7.41128 18.1359 6.25288 17.5618L6.63206 17.1826C7.52956 16.2851 7.52956 14.8247 6.63206 13.9272C5.82163 13.1168 4.55238 13.0381 3.65289 13.6913C3.22675 13.3818 2.71757 13.237 2.21355 13.256C1.78137 12.2253 1.56199 11.1314 1.56199 10C1.56199 5.34757 5.34702 1.56253 9.99947 1.56253C12.0886 1.56253 14.0486 2.31019 15.5911 3.68101C15.0511 3.94983 14.679 4.50737 14.679 5.15042C14.679 6.05506 15.415 6.79104 16.3196 6.79104C16.8098 6.79104 17.2502 6.57467 17.5511 6.23276C18.1323 7.39697 18.437 8.68592 18.437 10C18.437 11.6691 17.9506 13.2826 17.0304 14.6662C16.9109 14.8459 16.9597 15.0884 17.1393 15.2078C17.2058 15.252 17.2809 15.2732 17.3553 15.2732C17.4816 15.2732 17.6057 15.212 17.6809 15.0989C18.6866 13.5867 19.2182 11.8235 19.2182 10C19.2182 8.35318 18.7801 6.74221 17.95 5.33128C17.9566 5.27186 17.9602 5.21159 17.9602 5.15046V1.27234L19.717 0.766051C19.9242 0.706207 20.0438 0.489762 19.9841 0.282458ZM3.92902 14.4796C4.52195 13.8867 5.48667 13.8868 6.07956 14.4796C6.67245 15.0725 6.67245 16.0372 6.07956 16.6302L3.65281 19.0569L1.22605 16.6302C0.633165 16.0372 0.633165 15.0725 1.22605 14.4796C1.5225 14.1832 1.91195 14.0349 2.30133 14.0349C2.6907 14.0349 3.08015 14.1832 3.3766 14.4796C3.52917 14.6321 3.77648 14.6321 3.92902 14.4796ZM16.3195 6.00979C15.8457 6.00979 15.4602 5.62428 15.4602 5.15042C15.4602 4.67655 15.8457 4.29104 16.3195 4.29104C16.7934 4.29104 17.1789 4.67655 17.1789 5.15042C17.1789 5.62428 16.7934 6.00979 16.3195 6.00979Z" fill="#737FA8"/>
<path d="M9.99939 17.3698C14.0631 17.3698 17.3692 14.0637 17.3692 10C17.3692 9.7843 17.1943 9.60938 16.9786 9.60938C16.7628 9.60938 16.588 9.7843 16.588 10C16.588 13.6329 13.6323 16.5886 9.99939 16.5886C9.78365 16.5886 9.60876 16.7635 9.60876 16.9792C9.60876 17.1949 9.78365 17.3698 9.99939 17.3698Z" fill="#737FA8"/>
<path d="M9.60876 15.1302C9.60876 15.3459 9.78365 15.5208 9.99939 15.5208C13.0436 15.5208 15.5202 13.0442 15.5202 10C15.5202 9.7843 15.3453 9.60938 15.1296 9.60938C14.9138 9.60938 14.7389 9.7843 14.7389 10C14.7389 12.6134 12.6128 14.7396 9.99939 14.7396C9.78365 14.7396 9.60876 14.9145 9.60876 15.1302Z" fill="#737FA8"/>
<path d="M16.242 15.852C16.1393 15.852 16.0385 15.8934 15.9654 15.966C15.8928 16.0391 15.8514 16.1395 15.8514 16.2426C15.8514 16.3453 15.8928 16.4461 15.9654 16.5188C16.0385 16.5914 16.1389 16.6332 16.242 16.6332C16.3447 16.6332 16.4455 16.5915 16.5182 16.5188C16.5908 16.4461 16.6326 16.3453 16.6326 16.2426C16.6326 16.1395 16.5908 16.0391 16.5182 15.966C16.4455 15.8934 16.3447 15.852 16.242 15.852Z" fill="#737FA8"/>
</g>
<defs>
<clipPath id="clip0">
<rect width="20" height="20" fill="white"/>
</clipPath>
</defs>
</svg>
