<svg width="20" height="20" viewBox="0 0 20 20" fill="none" xmlns="http://www.w3.org/2000/svg">
<g clip-path="url(#clip0)">
<path d="M17.4605 9.06473L17.0362 7.48141C16.4504 5.29535 15.0485 3.4683 13.0885 2.33673C11.1286 1.20513 8.84533 0.904507 6.65928 1.49026C4.47322 2.07601 2.64617 3.47799 1.51457 5.43796C0.383007 7.3979 0.0823964 9.6812 0.668137 11.8672L1.09239 13.4505C0.28361 13.7172 -0.18742 14.5751 0.0357205 15.4079L0.692617 17.8595C0.923815 18.7223 1.81392 19.2363 2.67677 19.0051L3.58142 18.7627C3.89592 19.6789 4.87375 20.2101 5.82334 19.9556C6.81492 19.69 7.40549 18.667 7.1398 17.6755L5.71118 12.3438C5.44548 11.3522 4.42258 10.7616 3.43099 11.0273C3.24886 11.0761 3.08046 11.1506 2.92822 11.2456C2.06348 7.98592 4.00652 4.62749 7.26589 3.75415C10.5253 2.88081 13.8872 4.81777 14.7681 8.07312C14.5888 8.06699 14.4056 8.08666 14.2235 8.13545C13.232 8.40115 12.6414 9.42405 12.9071 10.4156L14.3357 15.7473C14.6014 16.7389 15.6243 17.3294 16.6159 17.0638C17.5655 16.8093 18.1467 15.8604 17.9609 14.9096L18.8656 14.6672C19.7284 14.436 20.2423 13.546 20.0111 12.6831L19.3542 10.2315C19.1311 9.39875 18.2942 8.89127 17.4605 9.06473Z" fill="#1D243E"/>
</g>
<defs>
<clipPath id="clip0">
<rect width="20" height="20" fill="white"/>
</clipPath>
</defs>
</svg>
