<svg width="97" height="107" viewBox="0 0 97 107" fill="none" xmlns="http://www.w3.org/2000/svg">
<path d="M20.9082 92.5063C18.4878 92.7754 14.8627 92.7562 11.1508 90.9958C3.33434 87.2905 -0.724946 77.8389 0.230403 69.6903C0.74395 65.2855 2.63577 62.0261 3.84411 60.2695C2.40165 55.9877 1.01583 50.5719 0.373894 44.2261C-0.698513 33.6406 0.728846 24.7886 2.21285 18.8156C4.25193 19.3575 6.29102 19.9033 8.33388 20.4453C9.75368 17.6048 15.1724 7.61513 26.7158 3.51394C31.3529 1.865 35.5594 1.67282 38.5539 1.83041C40.3815 1.0463 46.5025 -1.29833 53.7375 0.946368C58.5407 2.43771 61.6522 5.27049 63.1362 6.83487C63.8461 7.53826 65.2432 8.70289 67.2898 9.16028C71.9646 10.2019 75.635 6.58118 75.9559 6.25447C77.8515 7.84959 79.8831 9.92902 81.7031 12.6234C88.5152 22.7131 87.3748 34.0557 86.7895 37.9993C87.6769 39.0986 88.7795 40.7053 89.6745 42.8346C90.4523 44.6873 90.8337 46.3708 91.0301 47.67C92.1402 48.777 96.5318 53.4047 96.9661 60.7884C97.4872 69.6481 91.9061 75.4482 91.0301 76.3245C90.5581 79.8838 89.3384 85.3725 85.7738 90.8267C77.3342 103.734 61.3538 107.869 49.2779 106.859C33.6638 105.544 23.7176 95.5467 20.9082 92.5063Z" fill="#334379"/>
<path d="M26.278 70.3737C26.0325 69.5319 25.6738 68.521 25.1225 67.4371C24.5939 66.3916 24.0199 65.5306 23.5063 64.8503C24.2691 64.8004 25.6398 64.6005 27.0634 63.7203C29.3668 62.2981 30.2164 60.0803 30.4506 59.3808C31.1265 57.5666 32.3613 54.8376 34.5854 52.0394C35.9334 50.3482 41.1595 43.7755 50.1693 42.6378C55.9958 41.9036 60.6705 43.787 62.9551 44.9247C64.5788 44.3597 66.2063 43.7909 67.83 43.2258C70.1561 44.4943 72.4859 45.7627 74.812 47.0311C75.1292 46.1048 76.16 43.5026 78.8562 41.6922C80.612 40.5122 82.3302 40.1663 83.2968 40.051C83.7651 40.7928 84.2333 41.6154 84.6827 42.5186C85.8079 44.7902 86.4725 46.935 86.8766 48.7454C85.9137 49.1067 84.3013 49.8716 82.8361 51.4475C80.3741 54.1034 80.023 57.2437 79.9512 58.2623C79.4717 59.0156 78.3993 60.4647 76.4886 61.4333C73.3884 63.0054 70.4053 62.129 69.7143 61.9061C68.4455 60.876 63.3327 56.9708 56.1883 57.5474C51.6457 57.9125 48.4209 59.9227 47.0804 60.8683C42.0809 64.3968 40.3175 69.332 39.8077 70.9694C37.829 70.2276 34.7175 69.3705 30.9037 69.5857C29.1214 69.6972 27.5619 70.0124 26.278 70.3737Z" fill="white"/>
<path d="M27.5468 75.309C27.7734 76.7811 27.9131 78.5723 27.7771 80.5979C27.4902 84.9259 26.0855 88.2891 25.0055 90.3493C25.8136 91.6331 26.92 93.1321 28.4266 94.6311C30.9906 97.1833 33.6414 98.6593 35.5257 99.5049C42.1867 102.907 48.0698 103.844 51.608 104.137C55.6786 104.471 65.1113 105.117 74.3513 99.4203C76.651 98.002 80.9935 95.2538 84.2975 89.7074C87.4808 84.3647 88.0434 79.2026 88.1491 76.6005C86.5217 76.1008 84.8942 75.605 83.2667 75.1053C83.1345 74.4288 82.8135 73.2526 81.9337 72.1149C81.5108 71.5653 80.0683 69.6972 78.218 69.8318C76.8851 69.9279 75.9939 71.0195 75.3331 71.8535C73.1619 74.5979 73.0297 77.9688 73.0977 79.6716C72.2216 81.1552 70.6432 83.4038 68.0264 85.3025C62.7323 89.1462 55.4747 89.6228 49.6973 87.6433C44.3579 85.8099 43.5838 82.8926 34.5854 78.3686C31.6703 76.8964 29.1781 75.9086 27.5468 75.309Z" fill="white"/>
<g filter="url(#filter0_d)">
<path d="M12.1552 81.0784C11.6115 80.6978 9.94624 79.4333 9.16459 77.0348C8.36406 74.5864 8.99844 72.5185 9.21368 71.892C9.0362 72.0957 7.31431 74.1636 7.93736 76.8849C8.40937 78.9528 10.052 80.5825 12.1552 81.0784Z" fill="#6C88EA"/>
</g>
<g filter="url(#filter1_d)">
<path d="M10.3427 54.4379C10.0897 50.7442 9.98017 45.5514 10.6674 39.4169C11.5246 31.7488 12.1401 26.2638 15.1156 20.7482C22.8981 6.33057 40.3587 3.66691 41.4538 3.51701C50.3276 2.30241 57.4531 4.75851 60.8969 6.2191C57.6381 5.13519 50.7543 3.34404 42.4129 5.13903C40.5438 5.53878 27.3124 8.60218 20.1076 20.7482C16.1843 27.367 15.5763 34.1011 15.0061 40.4085C14.5681 45.2746 14.7569 49.3912 15.0401 52.3547C13.473 53.0504 11.9097 53.7461 10.3427 54.4379Z" fill="#6C88EA"/>
</g>
<g filter="url(#filter2_d)">
<path d="M52.4763 84.8259C48.923 83.423 48.1678 76.5313 49.9237 71.8266C51.2378 68.2981 54.7306 63.9471 58.0876 64.5352C61.8221 65.1925 64.3143 71.7767 62.8945 76.8734C61.4785 81.9585 55.9843 86.2135 52.4763 84.8259Z" fill="#6C88EA"/>
</g>
<path d="M64.7448 64.2853C65.4585 65.6152 67.1087 69.136 66.4478 73.6139C66.259 74.9054 65.1829 80.9745 59.7868 83.7573C56.6678 85.364 53.6507 85.0795 52.3744 84.8797C53.5148 85.4024 56.5432 86.6016 60.0851 85.6945C65.0998 84.4107 68.8608 79.4985 69.0496 74.1751C69.2497 68.5441 65.3679 64.8542 64.7448 64.2853Z" fill="white"/>
<path d="M75.2424 65.5537C75.5294 66.2532 76.851 66.5299 77.5685 65.8919C78.15 65.373 78.2821 64.293 77.7497 63.801C77.289 63.3743 76.5187 63.5742 76.0882 63.8317C75.4992 64.1853 75.0045 64.981 75.2424 65.5537Z" fill="#6C88EA"/>
<path d="M75.2726 65.646C74.8913 65.2501 75.148 64.3046 75.6956 63.8318C76.1487 63.4397 76.9454 63.2552 77.2966 63.6165C77.678 64.0086 77.4212 64.9311 76.9039 65.4C76.4394 65.819 75.6238 66.0112 75.2726 65.646Z" fill="white"/>
<g filter="url(#filter3_d)">
<path d="M86.2609 68.9361C85.6265 68.9361 85.0034 65.6997 84.9279 62.9976C84.8184 59.0194 85.8568 54.8145 86.5932 54.8529C87.3333 54.8875 87.8166 59.2001 87.6505 62.6594C87.5221 65.3384 86.9292 68.9361 86.2609 68.9361Z" fill="#6C88EA"/>
</g>
<path d="M88.2625 71.2578C89.131 69.7779 90.7698 66.5416 90.9284 62.0945C91.0832 57.7934 89.7767 54.534 89.0403 52.9888C89.6709 53.6422 92.5559 56.7671 92.5974 61.6447C92.6465 67.3026 88.8213 70.7658 88.2625 71.2578Z" fill="white"/>
<g filter="url(#filter4_d)">
<path d="M45.5701 10.7738C47.6771 11.1582 51.3173 12.1229 55.0367 14.802C59.889 18.2997 62.1357 22.7545 63.0307 24.8301C63.4536 24.4842 64.6506 23.4156 65.0698 21.5784C65.3303 20.4522 65.1906 19.5028 65.0698 18.9608C66.4896 19.9102 68.7288 21.6937 70.4809 24.6494C73.5773 29.8691 73.0335 35.1465 72.7881 36.8416C73.6075 35.7576 74.6535 34.1279 75.4502 31.9639C76.2734 29.7346 76.5302 27.7513 76.6019 26.3637C77.4817 27.1209 78.4862 28.128 79.4415 29.4348C81.3296 32.0216 82.1565 34.6007 82.5455 36.2996C82.8664 33.9434 83.1648 29.4348 81.4353 24.2113C79.9135 19.6258 77.4893 16.4932 75.96 14.7981C76.1979 15.3555 76.6774 16.6777 76.4395 18.3689C76.2394 19.8064 75.6164 20.8173 75.269 21.3055C73.5131 19.4989 71.4023 17.5656 68.9025 15.6629C64.745 12.4996 60.731 10.351 57.393 8.88272C57.7328 9.5938 58.0765 10.301 58.4163 11.0121C58.9525 12.1268 59.4812 13.2414 60.0136 14.3523C58.8543 13.2991 55.9845 10.9852 51.6722 10.3779C49.0818 10.0204 46.9295 10.4087 45.5701 10.7738Z" fill="#6C88EA"/>
</g>
<g filter="url(#filter5_d)">
<path d="M65.1868 92.6515C66.1308 92.9052 72.3575 94.4734 78.0934 90.4722C82.587 87.3396 83.9577 82.7579 84.2975 81.4703C83.0741 83.346 80.4082 86.8822 75.7409 89.5266C71.406 91.9866 67.3693 92.5247 65.1868 92.6515Z" fill="#6C88EA"/>
</g>
<path d="M27.9355 72.9335C29.4498 72.4992 31.8211 72.0226 34.7098 72.2686C36.9793 72.4646 38.8258 73.0412 40.121 73.5639C40.0115 74.1866 39.9208 75.0668 40.0303 76.1084C40.1361 77.1193 40.3928 77.938 40.6232 78.5145C38.9541 77.3807 36.8433 76.143 34.302 75.0437C31.9533 74.029 29.7821 73.3717 27.9355 72.9335Z" fill="white"/>
<g filter="url(#filter6_d)">
<path d="M27.8187 72.9759C29.7672 73.0143 32.1612 73.2334 34.8347 73.8714C36.8171 74.3442 38.5428 74.9553 39.989 75.5665C39.9966 75.9739 40.0457 76.4851 40.1778 77.054C40.3327 77.7036 40.5517 78.2301 40.7518 78.626C39.0866 77.4653 36.9342 76.1699 34.2985 75.0438C31.8893 74.0175 29.6728 73.3794 27.8187 72.9759Z" fill="#6C88EA"/>
</g>
<g filter="url(#filter7_d)">
<path d="M13.2014 62.9477C14.5835 62.6479 15.9655 62.3481 17.3513 62.0521C18.9562 63.5934 21.8713 66.8375 23.3024 71.8612C25.8513 80.8131 21.6598 88.312 20.8216 89.7496C21.4861 87.4857 23.2722 80.3211 20.0437 72.4416C18.065 67.6101 15.0328 64.5351 13.2014 62.9477Z" fill="#6C88EA"/>
</g>
<defs>
<filter id="filter0_d" x="2.80212" y="66.892" width="14.3531" height="19.1864" filterUnits="userSpaceOnUse" color-interpolation-filters="sRGB">
<feFlood flood-opacity="0" result="BackgroundImageFix"/>
<feColorMatrix in="SourceAlpha" type="matrix" values="0 0 0 0 0 0 0 0 0 0 0 0 0 0 0 0 0 0 127 0"/>
<feOffset/>
<feGaussianBlur stdDeviation="2.5"/>
<feColorMatrix type="matrix" values="0 0 0 0 0.423529 0 0 0 0 0.533333 0 0 0 0 0.917647 0 0 0 1 0"/>
<feBlend mode="normal" in2="BackgroundImageFix" result="effect1_dropShadow"/>
<feBlend mode="normal" in="SourceGraphic" in2="effect1_dropShadow" result="shape"/>
</filter>
<filter id="filter1_d" x="5.14771" y="-1.80982" width="60.7492" height="61.2478" filterUnits="userSpaceOnUse" color-interpolation-filters="sRGB">
<feFlood flood-opacity="0" result="BackgroundImageFix"/>
<feColorMatrix in="SourceAlpha" type="matrix" values="0 0 0 0 0 0 0 0 0 0 0 0 0 0 0 0 0 0 127 0"/>
<feOffset/>
<feGaussianBlur stdDeviation="2.5"/>
<feColorMatrix type="matrix" values="0 0 0 0 0.423529 0 0 0 0 0.533333 0 0 0 0 0.917647 0 0 0 1 0"/>
<feBlend mode="normal" in2="BackgroundImageFix" result="effect1_dropShadow"/>
<feBlend mode="normal" in="SourceGraphic" in2="effect1_dropShadow" result="shape"/>
</filter>
<filter id="filter2_d" x="39.0148" y="54.4814" width="34.2839" height="40.6102" filterUnits="userSpaceOnUse" color-interpolation-filters="sRGB">
<feFlood flood-opacity="0" result="BackgroundImageFix"/>
<feColorMatrix in="SourceAlpha" type="matrix" values="0 0 0 0 0 0 0 0 0 0 0 0 0 0 0 0 0 0 127 0"/>
<feOffset/>
<feGaussianBlur stdDeviation="5"/>
<feColorMatrix type="matrix" values="0 0 0 0 0.423529 0 0 0 0 0.533333 0 0 0 0 0.917647 0 0 0 1 0"/>
<feBlend mode="normal" in2="BackgroundImageFix" result="effect1_dropShadow"/>
<feBlend mode="normal" in="SourceGraphic" in2="effect1_dropShadow" result="shape"/>
</filter>
<filter id="filter3_d" x="79.9199" y="49.8526" width="12.7633" height="24.0835" filterUnits="userSpaceOnUse" color-interpolation-filters="sRGB">
<feFlood flood-opacity="0" result="BackgroundImageFix"/>
<feColorMatrix in="SourceAlpha" type="matrix" values="0 0 0 0 0 0 0 0 0 0 0 0 0 0 0 0 0 0 127 0"/>
<feOffset/>
<feGaussianBlur stdDeviation="2.5"/>
<feColorMatrix type="matrix" values="0 0 0 0 0.423529 0 0 0 0 0.533333 0 0 0 0 0.917647 0 0 0 1 0"/>
<feBlend mode="normal" in2="BackgroundImageFix" result="effect1_dropShadow"/>
<feBlend mode="normal" in="SourceGraphic" in2="effect1_dropShadow" result="shape"/>
</filter>
<filter id="filter4_d" x="35.5701" y="-1.11728" width="57.2217" height="47.9588" filterUnits="userSpaceOnUse" color-interpolation-filters="sRGB">
<feFlood flood-opacity="0" result="BackgroundImageFix"/>
<feColorMatrix in="SourceAlpha" type="matrix" values="0 0 0 0 0 0 0 0 0 0 0 0 0 0 0 0 0 0 127 0"/>
<feOffset/>
<feGaussianBlur stdDeviation="5"/>
<feColorMatrix type="matrix" values="0 0 0 0 0.423529 0 0 0 0 0.533333 0 0 0 0 0.917647 0 0 0 1 0"/>
<feBlend mode="normal" in2="BackgroundImageFix" result="effect1_dropShadow"/>
<feBlend mode="normal" in="SourceGraphic" in2="effect1_dropShadow" result="shape"/>
</filter>
<filter id="filter5_d" x="60.1868" y="76.4703" width="29.1108" height="21.6957" filterUnits="userSpaceOnUse" color-interpolation-filters="sRGB">
<feFlood flood-opacity="0" result="BackgroundImageFix"/>
<feColorMatrix in="SourceAlpha" type="matrix" values="0 0 0 0 0 0 0 0 0 0 0 0 0 0 0 0 0 0 127 0"/>
<feOffset/>
<feGaussianBlur stdDeviation="2.5"/>
<feColorMatrix type="matrix" values="0 0 0 0 0.423529 0 0 0 0 0.533333 0 0 0 0 0.917647 0 0 0 1 0"/>
<feBlend mode="normal" in2="BackgroundImageFix" result="effect1_dropShadow"/>
<feBlend mode="normal" in="SourceGraphic" in2="effect1_dropShadow" result="shape"/>
</filter>
<filter id="filter6_d" x="22.8187" y="67.9759" width="22.9331" height="15.6502" filterUnits="userSpaceOnUse" color-interpolation-filters="sRGB">
<feFlood flood-opacity="0" result="BackgroundImageFix"/>
<feColorMatrix in="SourceAlpha" type="matrix" values="0 0 0 0 0 0 0 0 0 0 0 0 0 0 0 0 0 0 127 0"/>
<feOffset/>
<feGaussianBlur stdDeviation="2.5"/>
<feColorMatrix type="matrix" values="0 0 0 0 0.423529 0 0 0 0 0.533333 0 0 0 0 0.917647 0 0 0 1 0"/>
<feBlend mode="normal" in2="BackgroundImageFix" result="effect1_dropShadow"/>
<feBlend mode="normal" in="SourceGraphic" in2="effect1_dropShadow" result="shape"/>
</filter>
<filter id="filter7_d" x="8.20142" y="57.0521" width="20.9129" height="37.6974" filterUnits="userSpaceOnUse" color-interpolation-filters="sRGB">
<feFlood flood-opacity="0" result="BackgroundImageFix"/>
<feColorMatrix in="SourceAlpha" type="matrix" values="0 0 0 0 0 0 0 0 0 0 0 0 0 0 0 0 0 0 127 0"/>
<feOffset/>
<feGaussianBlur stdDeviation="2.5"/>
<feColorMatrix type="matrix" values="0 0 0 0 0.423529 0 0 0 0 0.533333 0 0 0 0 0.917647 0 0 0 1 0"/>
<feBlend mode="normal" in2="BackgroundImageFix" result="effect1_dropShadow"/>
<feBlend mode="normal" in="SourceGraphic" in2="effect1_dropShadow" result="shape"/>
</filter>
</defs>
</svg>
