<svg width="36" height="20" viewBox="0 0 36 20" fill="none" xmlns="http://www.w3.org/2000/svg">
<path d="M35.8091 18.0622C35.7655 17.9707 35.7248 17.8948 35.6871 17.834C35.0625 16.7387 33.8689 15.3942 32.107 13.8002L32.0698 13.7637L32.0512 13.7458L32.0323 13.7275H32.0134C31.2138 12.9852 30.7074 12.4861 30.4954 12.2306C30.1074 11.7439 30.0205 11.2512 30.2325 10.752C30.3823 10.3749 30.9451 9.57835 31.9195 8.3614C32.432 7.71645 32.8379 7.19955 33.1377 6.81011C35.2996 4.01144 36.2369 2.22306 35.9494 1.44425L35.8377 1.26225C35.7627 1.15269 35.569 1.05245 35.257 0.961035C34.9442 0.869813 34.5444 0.854728 34.057 0.915521L28.659 0.95183C28.5715 0.921657 28.4466 0.92447 28.284 0.961035C28.1215 0.997601 28.0402 1.01595 28.0402 1.01595L27.9463 1.06165L27.8717 1.11657C27.8092 1.15288 27.7404 1.21674 27.6654 1.30803C27.5908 1.39899 27.5283 1.50575 27.4784 1.6274C26.8907 3.09967 26.2225 4.46851 25.4726 5.73386C25.0102 6.48838 24.5856 7.14227 24.1978 7.69593C23.8105 8.2494 23.4856 8.65718 23.2234 8.91858C22.9608 9.18022 22.7238 9.38984 22.511 9.54818C22.2985 9.70659 22.1363 9.77352 22.0239 9.74904C21.9113 9.72455 21.8053 9.70026 21.7049 9.67597C21.5301 9.5664 21.3895 9.41739 21.2835 9.22881C21.177 9.04023 21.1053 8.80287 21.0678 8.51693C21.0305 8.2308 21.0085 7.98469 21.0022 7.77776C20.9963 7.57109 20.999 7.27875 21.0117 6.90159C21.0247 6.52424 21.0305 6.26892 21.0305 6.13506C21.0305 5.67262 21.0398 5.17074 21.0583 4.62929C21.0773 4.08784 21.0926 3.65883 21.1054 3.34278C21.1181 3.02641 21.124 2.6917 21.124 2.33883C21.124 1.98596 21.1019 1.70922 21.0583 1.50837C21.0153 1.30777 20.9492 1.11305 20.8621 0.924278C20.7744 0.735697 20.6461 0.589819 20.4778 0.486259C20.3091 0.382827 20.0995 0.300747 19.8499 0.239761C19.1876 0.0938189 18.3442 0.0148707 17.3193 0.00259691C14.9952 -0.0216949 13.5019 0.124439 12.8396 0.440808C12.5772 0.574476 12.3397 0.757112 12.1274 0.98814C11.9024 1.25592 11.871 1.40206 12.0335 1.4261C12.7833 1.53547 13.3142 1.79712 13.6266 2.21078L13.7392 2.42999C13.8268 2.58814 13.9142 2.86813 14.0017 3.26959C14.0891 3.67104 14.1455 4.11513 14.1703 4.60161C14.2327 5.48998 14.2327 6.25044 14.1703 6.88305C14.1077 7.51592 14.0487 8.00859 13.9923 8.36146C13.9359 8.71433 13.8516 9.00027 13.7392 9.21922C13.6266 9.43823 13.5517 9.57209 13.5141 9.62067C13.4766 9.66926 13.4454 9.69988 13.4206 9.71189C13.2582 9.7725 13.0892 9.80337 12.9144 9.80337C12.7393 9.80337 12.527 9.7181 12.2771 9.54767C12.0273 9.37724 11.7681 9.14315 11.4994 8.845C11.2307 8.54678 10.9276 8.13005 10.5901 7.59474C10.2529 7.05942 9.90297 6.42675 9.54058 5.69672L9.24075 5.16729C9.05332 4.82669 8.79728 4.33075 8.47238 3.67993C8.14728 3.02884 7.85993 2.39904 7.61013 1.79066C7.51027 1.53515 7.36026 1.34063 7.16036 1.20677L7.06654 1.15185C7.00418 1.10327 6.90406 1.05168 6.76672 0.996706C6.62918 0.941794 6.48567 0.902415 6.33559 0.878187L1.19983 0.914498C0.675017 0.914498 0.31893 1.03027 0.131432 1.26149L0.0563937 1.37086C0.0189073 1.43178 0 1.52908 0 1.663C0 1.79686 0.0374864 1.96115 0.112525 2.15568C0.862252 3.87145 1.67756 5.52617 2.55846 7.12009C3.43936 8.71402 4.20484 9.99796 4.85445 10.9708C5.50419 11.9443 6.16648 12.8631 6.8413 13.7268C7.51612 14.5907 7.9628 15.1444 8.18135 15.3876C8.40017 15.6313 8.57204 15.8135 8.69697 15.9351L9.16565 16.3731C9.46554 16.6652 9.90592 17.015 10.487 17.4225C11.0682 17.8303 11.7116 18.2317 12.4176 18.6275C13.1238 19.0226 13.9453 19.3451 14.8826 19.5944C15.8197 19.8441 16.7319 19.9442 17.6191 19.8959H19.7747C20.2119 19.8591 20.5431 19.7253 20.7682 19.4943L20.8428 19.4028C20.8929 19.3302 20.9398 19.2173 20.9832 19.0655C21.027 18.9134 21.0488 18.7459 21.0488 18.5636C21.036 18.0405 21.0769 17.5691 21.1704 17.1493C21.2638 16.7297 21.3703 16.4134 21.4894 16.2003C21.6084 15.9874 21.7428 15.8078 21.8922 15.6622C22.0421 15.5162 22.1488 15.4278 22.2114 15.3974C22.2737 15.3668 22.3234 15.346 22.3609 15.3335C22.6607 15.2362 23.0137 15.3305 23.4202 15.6167C23.8264 15.9026 24.2073 16.2557 24.5637 16.6753C24.9198 17.0953 25.3477 17.5665 25.8475 18.0896C26.3475 18.6129 26.7848 19.0018 27.1595 19.2577L27.5342 19.4767C27.7845 19.6229 28.1094 19.7567 28.5093 19.8784C28.9086 20 29.2583 20.0304 29.5587 19.9696L34.3569 19.8967C34.8315 19.8967 35.2008 19.8202 35.4627 19.6684C35.7252 19.5163 35.8811 19.3488 35.9314 19.1665C35.9815 18.9841 35.9842 18.7771 35.9409 18.5457C35.8965 18.3148 35.8527 18.1534 35.8091 18.0622Z" fill="white"/>
</svg>
