<svg width="14" height="14" viewBox="0 0 14 14" fill="none" xmlns="http://www.w3.org/2000/svg">
<path d="M8.16662 0.700012H5.8333C5.70451 0.700012 5.59998 0.804547 5.59998 0.933335C5.59998 1.06212 5.70451 1.16666 5.8333 1.16666H8.16662C8.29541 1.16666 8.39995 1.06212 8.39995 0.933335C8.39995 0.804547 8.29541 0.700012 8.16662 0.700012Z" fill="#1D243E"/>
<path d="M9.80002 0.700012H9.5667C9.43791 0.700012 9.33337 0.804547 9.33337 0.933335C9.33337 1.06212 9.43791 1.16666 9.5667 1.16666H9.80002C9.92881 1.16666 10.0333 1.06212 10.0333 0.933335C10.0333 0.804547 9.92881 0.700012 9.80002 0.700012Z" fill="#1D243E"/>
<path d="M7.28976 11.9H6.7104C6.35551 11.9 6.06665 12.1889 6.06665 12.5437V12.6565C6.06665 13.0114 6.35551 13.3 6.71019 13.3H7.28954C7.64444 13.3 7.9333 13.0114 7.9333 12.6565V12.5437C7.9333 12.1889 7.64444 11.9 7.28976 11.9ZM7.46665 12.6565C7.46665 12.754 7.38733 12.8333 7.28979 12.8333H6.7104C6.61265 12.8333 6.5333 12.754 6.5333 12.6565V12.5437C6.5333 12.446 6.61262 12.3666 6.7104 12.3666H7.28954C7.38733 12.3666 7.46665 12.446 7.46665 12.5437V12.6565Z" fill="#1D243E"/>
<path d="M10.1234 0H3.87682C3.41179 0 3.03333 0.378465 3.03333 0.8435V13.1565C3.03333 13.6215 3.41179 14 3.87682 14H10.1231C10.5882 14 10.9666 13.6215 10.9666 13.1567V0.8435C10.9667 0.378465 10.5882 0 10.1234 0ZM10.5 13.1565C10.5 13.3642 10.3311 13.5333 10.1234 13.5333H3.87682C3.66893 13.5333 3.5 13.3641 3.5 13.1567V0.8435C3.5 0.635824 3.66893 0.466676 3.87682 0.466676H10.1231C10.331 0.466676 10.5 0.635852 10.5 0.8435V13.1565H10.5Z" fill="#1D243E"/>
<path d="M10.7333 1.39999H3.26665C3.13786 1.39999 3.03333 1.50453 3.03333 1.63332V11.4333C3.03333 11.5621 3.13786 11.6666 3.26665 11.6666H10.7333C10.8621 11.6666 10.9667 11.5621 10.9667 11.4333V1.63332C10.9667 1.50453 10.8621 1.39999 10.7333 1.39999ZM10.5 11.2H3.49997V1.86667H10.5V11.2Z" fill="#1D243E"/>
</svg>
