<svg width="20" height="20" viewBox="0 0 20 20" fill="none" xmlns="http://www.w3.org/2000/svg">
<g clip-path="url(#clip0)">
<path d="M19.3744 8.74946C19.0294 8.74946 18.7494 9.02945 18.7494 9.37442V16.4515L13.7498 18.4514V11.8743C13.7498 11.5293 13.4698 11.2493 13.1248 11.2493C12.7798 11.2493 12.4998 11.5293 12.4998 11.8743V18.4501L7.50014 16.4502V6.54835L10.3962 7.70703C10.7124 7.83452 11.0799 7.67953 11.2087 7.3583C11.3374 7.03832 11.1812 6.67459 10.8599 6.54585L7.11892 5.04844C7.11892 5.04844 7.11892 5.04844 7.11767 5.04844L7.10767 5.04469C6.95893 4.9847 6.79269 4.9847 6.64394 5.04469L6.6327 5.04844C6.6327 5.04844 6.6327 5.04844 6.63145 5.04844L0.393086 7.54454C0.156851 7.63953 0.000610352 7.86827 0.000610352 8.1245V19.3738C0.000610352 19.5813 0.104354 19.775 0.275593 19.8913C0.380587 19.9625 0.501829 19.9988 0.625571 19.9988C0.704316 19.9988 0.783061 19.9838 0.858057 19.9538L6.87518 17.5477L12.8811 19.95C12.8811 19.95 12.8811 19.95 12.8823 19.95L12.8936 19.955C13.0423 20.015 13.2085 20.015 13.3573 19.955L13.3685 19.95C13.3685 19.95 13.3685 19.95 13.3698 19.95L19.6081 17.4552C19.8431 17.3589 19.9994 17.1302 19.9994 16.874V9.37442C19.9994 9.02945 19.7194 8.74946 19.3744 8.74946ZM6.25022 16.4502L1.25053 18.4501V8.54698L6.25022 6.5471V16.4502Z" fill="#737FA8"/>
<path d="M15.6246 2.49985C14.591 2.49985 13.7498 3.34105 13.7498 4.37473C13.7498 5.40842 14.591 6.24961 15.6246 6.24961C16.6583 6.24961 17.4995 5.40842 17.4995 4.37473C17.4995 3.34105 16.6583 2.49985 15.6246 2.49985ZM15.6246 4.99969C15.2797 4.99969 14.9997 4.71971 14.9997 4.37473C14.9997 4.02975 15.2797 3.74977 15.6246 3.74977C15.9696 3.74977 16.2496 4.02975 16.2496 4.37473C16.2496 4.71971 15.9696 4.99969 15.6246 4.99969Z" fill="#737FA8"/>
<path d="M15.6247 0C13.2123 0 11.2499 1.96238 11.2499 4.37473C11.2499 6.61959 14.7597 10.5956 15.1597 11.0418C15.2784 11.1731 15.4472 11.2493 15.6247 11.2493C15.8022 11.2493 15.9709 11.1731 16.0896 11.0418C16.4896 10.5956 19.9994 6.61959 19.9994 4.37473C19.9994 1.96238 18.037 0 15.6247 0ZM15.6247 9.67065C14.2598 8.052 12.4999 5.56715 12.4999 4.37473C12.4999 2.65233 13.9023 1.24992 15.6247 1.24992C17.3471 1.24992 18.7495 2.65233 18.7495 4.37473C18.7495 5.5659 16.9896 8.052 15.6247 9.67065Z" fill="#737FA8"/>
</g>
<defs>
<clipPath id="clip0">
<rect width="20" height="20" fill="white"/>
</clipPath>
</defs>
</svg>
